<?xml version="1.0" encoding="utf-8"?>
<!-- Generator: Adobe Illustrator 21.0.2, SVG Export Plug-In . SVG Version: 6.00 Build 0)  -->
<svg version="1.1" xmlns="http://www.w3.org/2000/svg" xmlns:xlink="http://www.w3.org/1999/xlink" x="0px" y="0px"
	 viewBox="0 0 1000 1000" style="enable-background:new 0 0 1000 1000;" xml:space="preserve">
<style type="text/css">
	.st0{fill:#A5D6E8;}
</style>
<g id="Layer_3">
	<g>
		<path class="st0" d="M870.9,776.9c-1-13.5-12.9-22-14-22.8c-11.8-8.2-24.3-5.7-26.3-5.3l-22.1,12.4
			c-75.1,90.7-188.6,148.4-315.6,148.4C266.6,909.7,83.1,726.3,83.1,500S266.6,90.3,492.8,90.3c122.1,0,231.7,53.4,306.7,138.1
			l22.2,12.5c2.1,0.4,14.6,2.9,26.3-5.3c1.2-0.8,13-9.3,14-22.8c0.6-8.3-3.2-14.8-7-19.8C768,90.3,638,25.1,492.8,25.1
			C230.6,25.1,17.9,237.7,17.9,500s212.6,474.9,474.9,474.9c151.4,0,286.3-70.9,373.3-181.3C869,789.1,871.4,783.6,870.9,776.9z"/>
	</g>
</g>
<g id="Layer_2">
	<polyline class="st0" points="629.2,399.9 755,399.9 755,277 984.2,496.5 755,711.4 755,588.5 629.2,588.5 404.2,588.5 
		404.2,399.9 	"/>
</g>
</svg>
