<svg fill="#a5d6e8" version="1.1" xmlns="http://www.w3.org/2000/svg" xmlns:xlink="http://www.w3.org/1999/xlink" viewBox="0 0 1000 1000" xml:space="preserve">
  <path d="M834,388.9c0-0.3,0.1-2,0.1-2c0-144.6-117.6-262.2-262.2-262.2c-100.3,0-187.9,58.7-231.8,146.6c-22.5-17.5-48.3-30.1-77.4-30.1c-71.3,0-129.4,58-129.4,129.4c0,0,0.9,6.3,1.5,11.2C61.9,406.5,10,473.2,10,552.1c0,48.7,19,94.6,53.4,129c34.5,34.5,80.3,53.6,129.1,53.6h250.2v140.7h161.2V734.6h211.1c96.4,0,174.9-78.5,174.9-174.8C990,470.1,921.1,398.7,834,388.9z M815.1,683.1H603.9V575.6h105L525.3,379.8L337.7,575.6h105v107.5H192.5c-35,0-67.9-13.6-92.6-38.4c-24.7-24.8-38.3-57.7-38.3-92.5c0-62.8,44.6-116.8,106.1-128.6l24-4.6l-4-27.7l-2.8-20.7c0-42.9,34.9-77.8,77.8-77.8c25.5,0,49.4,12.5,64,33.4l29.3,42l16.3-48.6c28.8-85.8,109.1-143.4,199.5-143.4c116.2,0,210.7,94.5,210.7,210.6l-2.6,49.4l29,0.6l6-0.2c68.1,0,123.3,55.3,123.3,123.3C938.3,627.8,883.1,683.1,815.1,683.1z"/>
</svg>
